<svg width="26" height="26" viewBox="0 0 26 26" fill="none" xmlns="http://www.w3.org/2000/svg">
<path d="M19.1388 8.27776C20.1974 8.27776 21.0555 7.41964 21.0555 6.36109C21.0555 5.30255 20.1974 4.44443 19.1388 4.44443C18.0803 4.44443 17.2222 5.30255 17.2222 6.36109C17.2222 7.41964 18.0803 8.27776 19.1388 8.27776Z" fill="#2067F3"/>
<path d="M17.8611 1.25C21.3878 1.25 24.25 4.11222 24.25 7.63889V17.8611C24.25 21.3878 21.3878 24.25 17.8611 24.25H7.63889C4.11222 24.25 1.25 21.3878 1.25 17.8611V7.63889C1.25 4.11222 4.11222 1.25 7.63889 1.25H12.75H17.8611Z" stroke="#2067F3" stroke-width="2.5" stroke-linecap="round" stroke-linejoin="round"/>
<path d="M12.75 7.63889C15.5739 7.63889 17.8611 9.92611 17.8611 12.75C17.8611 15.5739 15.5739 17.8611 12.75 17.8611C9.92614 17.8611 7.63892 15.5739 7.63892 12.75C7.63892 9.92611 9.92614 7.63889 12.75 7.63889Z" stroke="#2067F3" stroke-width="2.5" stroke-linecap="round" stroke-linejoin="round"/>
</svg>
