<svg width="23" height="23" viewBox="0 0 23 23" fill="none" xmlns="http://www.w3.org/2000/svg">
<path d="M2.76 5.5246C4.29333 5.5246 5.52 4.27773 5.52 2.7623C5.52 1.24687 4.27417 0 2.76 0C1.24583 0 0 1.24687 0 2.7623C0 4.27773 1.24583 5.5246 2.76 5.5246ZM8.14583 7.61551V23H12.8992V15.4037C12.8992 13.3895 13.2825 11.452 15.755 11.452C18.2275 11.452 18.2275 13.754 18.2275 15.5188V23H23V14.5596C23 10.4162 22.1183 7.23186 17.2883 7.23186C14.9692 7.23186 13.4167 8.49792 12.7842 9.70642H12.7267V7.59633H8.165L8.14583 7.61551ZM0.383333 7.61551H5.15583V23H0.383333V7.61551Z" fill="#2067F3"/>
</svg>
