<svg width="25" height="25" viewBox="0 0 25 25" fill="none" xmlns="http://www.w3.org/2000/svg">
<path d="M19.6738 11.503C19.6734 9.83503 19.0084 8.23542 17.825 7.05596C16.6415 5.87649 15.0365 5.21373 13.3628 5.2134M24 11.0629C24 9.74134 23.7388 8.4327 23.2313 7.21173C22.7238 5.99075 21.9799 4.88137 21.0422 3.94692C20.1045 3.01248 18.9912 2.27127 17.7661 1.76564C16.5409 1.26 15.2278 0.999837 13.9017 1M13.162 22.716C12.7877 22.5457 12.4147 22.3753 12.0417 22.1727C10.2121 21.1425 8.53135 19.8694 7.04562 18.3882C5.12038 16.5812 3.53855 14.4425 2.37633 12.0749C1.7546 10.8032 1.33462 9.4431 1.13136 8.04306C0.857136 6.62841 1.01443 5.16432 1.58294 3.8396C1.93367 3.27017 2.35721 2.7486 2.84289 2.28802C3.03997 2.06825 3.27958 1.89044 3.54732 1.76525C3.81506 1.64005 4.10542 1.57006 4.40098 1.55947C5.01598 1.65147 5.5736 1.97223 5.95782 2.45834C6.79862 3.38954 7.70054 4.2275 8.58749 5.11145C8.93679 5.40984 9.15509 5.83254 9.19501 6.29006C9.18004 6.67547 9.03159 7.04223 8.77461 7.32943C8.47896 7.7024 8.12094 8.04306 7.77913 8.39863C7.57245 8.59704 7.41432 8.84016 7.31698 9.10921C7.21964 9.37825 7.18569 9.66601 7.21777 9.95021C7.43233 10.6154 7.80034 11.2221 8.29184 11.7194C8.88153 12.5212 9.49941 13.302 10.1443 14.0604C11.3472 15.4433 12.772 16.6176 14.3608 17.5353C14.5808 17.7009 14.8409 17.8054 15.1146 17.8382C15.3883 17.8709 15.6658 17.8308 15.9189 17.7218C16.4466 17.4272 16.9169 17.038 17.3036 16.5743C17.6386 16.1681 18.1182 15.9066 18.6421 15.8445C19.1087 15.8694 19.5478 16.0683 19.8721 16.404C20.2913 16.7595 20.6493 17.1785 21.0385 17.5664C21.4277 17.9543 21.7396 18.234 22.0664 18.5896C22.4581 18.9344 22.8261 19.3016 23.1704 19.6911C23.4374 20.0355 23.5659 20.4682 23.5285 20.9008C23.3894 21.4189 23.09 21.8801 22.6727 22.2187C22.0851 22.8276 21.3712 23.3014 20.5809 23.6069C19.7906 23.9125 18.9429 24.0425 18.097 23.9878C16.3842 23.8931 14.706 23.4608 13.162 22.716Z" stroke="#2067F3" stroke-width="2" stroke-miterlimit="10" stroke-linecap="round"/>
</svg>
