<svg width="27" height="18" viewBox="0 0 27 18" fill="none" xmlns="http://www.w3.org/2000/svg">
<path d="M10.8 12.8571L17.8065 9L10.8 5.14286V12.8571ZM26.406 2.79C26.5815 3.39429 26.703 4.20429 26.784 5.23286C26.8785 6.26143 26.919 7.14857 26.919 7.92L27 9C27 11.8157 26.784 13.8857 26.406 15.21C26.0685 16.3671 25.2855 17.1129 24.0705 17.4343C23.436 17.6014 22.275 17.7171 20.493 17.7943C18.738 17.8843 17.1315 17.9229 15.6465 17.9229L13.5 18C7.8435 18 4.32 17.7943 2.9295 17.4343C1.7145 17.1129 0.9315 16.3671 0.594 15.21C0.4185 14.6057 0.297 13.7957 0.216 12.7671C0.1215 11.7386 0.0809999 10.8514 0.0809999 10.08L0 9C0 6.18429 0.216 4.11429 0.594 2.79C0.9315 1.63286 1.7145 0.887143 2.9295 0.565714C3.564 0.398571 4.725 0.282857 6.507 0.205714C8.262 0.115714 9.8685 0.0771428 11.3535 0.0771428L13.5 0C19.1565 0 22.68 0.205714 24.0705 0.565714C25.2855 0.887143 26.0685 1.63286 26.406 2.79Z" fill="#2067F3"/>
</svg>
